<svg width="191" height="191" viewBox="0 0 191 191" fill="none" xmlns="http://www.w3.org/2000/svg">
<g clip-path="url(#clip0_1_526)">
<g clip-path="url(#clip1_1_526)">
<g filter="url(#filter0_d_1_526)">
<path d="M95.5 165C136.093 165 169 132.093 169 91.5C169 50.9071 136.093 18 95.5 18C54.9071 18 22 50.9071 22 91.5C22 132.093 54.9071 165 95.5 165Z" fill="white"/>
</g>
<path d="M67.957 145.092L72.3922 134.86L73.7281 135.439L71.7173 140.078L76.9288 142.337L78.9396 137.698L80.2755 138.277L75.8402 148.509L74.5043 147.93L76.4515 143.438L71.24 141.179L69.2929 145.671L67.957 145.092Z" fill="#1F6275"/>
<path d="M62.2515 140.224C62.4792 140.382 62.6171 140.595 62.6652 140.862C62.7132 141.13 62.6581 141.377 62.4998 141.605C62.3415 141.833 62.1287 141.97 61.8615 142.018C61.5942 142.067 61.3468 142.011 61.119 141.853C60.9001 141.701 60.771 141.494 60.7317 141.233C60.6836 140.966 60.7387 140.718 60.897 140.491C61.0553 140.263 61.2681 140.125 61.5353 140.077C61.7938 140.023 62.0325 140.072 62.2515 140.224ZM62.4863 138.653L67.491 131.454L68.6865 132.285L63.6818 139.484L62.4863 138.653Z" fill="#1F6275"/>
<path d="M54.5529 131.945C54.0243 131.402 53.6812 130.813 53.5234 130.178C53.3582 129.534 53.3584 128.939 53.5238 128.39L52.378 129.507L51.3506 128.452L57.7675 122.199C58.3404 121.641 58.9675 121.268 59.6488 121.081C60.3378 120.886 61.0316 120.895 61.7304 121.107C62.4217 121.312 63.0614 121.717 63.6495 122.32C64.4536 123.145 64.9288 124.023 65.0752 124.952C65.2216 125.882 65.0071 126.724 64.4316 127.478L63.4266 126.447C63.6969 125.96 63.7717 125.426 63.6509 124.843C63.5379 124.254 63.2357 123.707 62.7443 123.202C62.186 122.629 61.5523 122.338 60.8434 122.329C60.127 122.312 59.4442 122.62 58.7948 123.253L57.4771 124.537C58.0448 124.386 58.6481 124.394 59.2871 124.561C59.9261 124.727 60.5099 125.082 61.0385 125.624C61.582 126.182 61.9395 126.824 62.1112 127.55C62.2754 128.269 62.2358 129 61.9924 129.744C61.7489 130.487 61.3102 131.168 60.6761 131.786C60.0345 132.412 59.3464 132.829 58.612 133.038C57.87 133.255 57.1457 133.268 56.4391 133.078C55.7251 132.88 55.0963 132.502 54.5529 131.945ZM55.5062 126.458C55.0326 126.92 54.7131 127.417 54.5478 127.951C54.3825 128.484 54.3683 129.004 54.5051 129.512C54.6268 130.018 54.8774 130.467 55.2571 130.856C55.6368 131.246 56.0746 131.512 56.5706 131.654C57.0666 131.796 57.5834 131.792 58.1209 131.64C58.6584 131.489 59.164 131.182 59.6376 130.72C60.1189 130.251 60.446 129.747 60.6189 129.206C60.7842 128.672 60.806 128.152 60.6843 127.645C60.555 127.146 60.3005 126.701 59.9208 126.311C59.5411 125.922 59.1033 125.656 58.6073 125.514C58.0962 125.371 57.5719 125.376 57.0344 125.527C56.4892 125.686 55.9798 125.997 55.5062 126.458Z" fill="#1F6275"/>
<path d="M45.6365 119.964C45.3032 119.393 45.1265 118.804 45.1065 118.198C45.0772 117.598 45.2314 117.026 45.5692 116.483C45.9015 115.931 46.4178 115.451 47.1179 115.042L51.5815 112.438L52.3073 113.681L48.0234 116.181C47.2679 116.622 46.8024 117.147 46.6266 117.756C46.4417 118.37 46.5401 119.004 46.9218 119.658C47.3089 120.322 47.8253 120.73 48.4711 120.885C49.1114 121.03 49.8278 120.871 50.6201 120.409L54.8072 117.965L55.5411 119.223L45.315 125.19L44.5811 123.933L48.3123 121.755C47.7802 121.732 47.2818 121.566 46.8173 121.257C46.3473 120.938 45.9537 120.507 45.6365 119.964Z" fill="#1F6275"/>
<path d="M49.0305 92.1639L47.079 94.6305C47.2904 95.1535 47.4288 95.6958 47.4942 96.2573C47.6141 97.285 47.485 98.2505 47.1071 99.1537C46.7185 100.058 46.1242 100.809 45.3241 101.407C44.5121 101.996 43.5658 102.353 42.4851 102.479C41.4044 102.605 40.4066 102.475 39.4916 102.087C38.5647 101.691 37.8135 101.096 37.2379 100.304C36.6517 99.5136 36.2987 98.6044 36.1789 97.5767C36.0578 96.5384 36.1916 95.567 36.5801 94.6626C36.9581 93.7594 37.5477 93.0141 38.3491 92.4267C39.1504 91.8392 40.0968 91.4819 41.188 91.3547C42.2475 91.2311 43.2282 91.3531 44.1302 91.7204C45.0321 92.0878 45.7743 92.6509 46.3568 93.4099L48.8119 90.2886L49.0305 92.1639ZM42.3128 101.001C43.1922 100.899 43.9452 100.634 44.5719 100.206C45.1974 99.7683 45.6544 99.221 45.943 98.5645C46.2303 97.8974 46.3289 97.1772 46.2387 96.4037C46.1486 95.6303 45.8875 94.9573 45.4557 94.3848C45.0226 93.8017 44.4519 93.3743 43.7436 93.1025C43.0342 92.8201 42.2397 92.7301 41.3604 92.8327C40.4704 92.9364 39.718 93.2067 39.1031 93.6435C38.4764 94.071 38.0187 94.613 37.7301 95.2695C37.4416 95.926 37.343 96.6462 37.4344 97.4303C37.5258 98.2143 37.7874 98.8926 38.2193 99.4651C38.6512 100.038 39.2219 100.465 39.9313 100.747C40.629 101.02 41.4228 101.105 42.3128 101.001Z" fill="#1F6275"/>
<path d="M39.6358 78.7417L48.3138 79.9951L48.1056 81.4362L46.8229 81.2509C47.2267 81.5894 47.5194 82.0251 47.7011 82.5579C47.8738 83.0786 47.9174 83.6345 47.832 84.2257C47.7344 84.9014 47.5095 85.4886 47.1573 85.9873C46.7944 86.4846 46.3104 86.8512 45.7051 87.087C45.1014 87.3124 44.3983 87.3671 43.596 87.2512L38.5127 86.517L38.7186 85.0918L43.6118 85.7986C44.4669 85.9221 45.158 85.801 45.6851 85.4352C46.2015 85.0679 46.5139 84.5095 46.6222 83.76C46.7335 82.9893 46.5836 82.348 46.1726 81.8359C45.7616 81.3239 45.1021 81.0023 44.1942 80.8712L39.4277 80.1827L39.6358 78.7417Z" fill="#1F6275"/>
<path d="M45.297 74.7084C44.4675 74.3697 43.8102 73.9054 43.3252 73.3156C42.8303 72.7218 42.529 72.063 42.4213 71.3392C42.3177 70.6056 42.413 69.8783 42.7074 69.1574C42.9978 68.4464 43.4029 67.8918 43.9227 67.4934C44.4426 67.095 44.987 66.8622 45.556 66.795L44.0747 66.1901L44.6312 64.8274L52.7485 68.1422L52.192 69.505L50.6811 68.888C51.0462 69.3482 51.2779 69.9094 51.3761 70.5717C51.4685 71.2201 51.3716 71.8948 51.0852 72.596C50.7909 73.3168 50.347 73.896 49.7535 74.3334C49.1601 74.7709 48.4739 75.0264 47.6949 75.1001C46.9159 75.1737 46.1166 75.0431 45.297 74.7084ZM48.1185 67.8415C47.5063 67.5915 46.9226 67.4971 46.3676 67.5585C45.8125 67.6199 45.3298 67.8145 44.9193 68.1423C44.5031 68.4563 44.1921 68.8651 43.9865 69.3687C43.7808 69.8723 43.7118 70.3799 43.7794 70.8914C43.8471 71.4029 44.0576 71.8749 44.411 72.3073C44.7645 72.7397 45.2473 73.0809 45.8596 73.3309C46.4817 73.5849 47.0752 73.6833 47.6402 73.626C48.1952 73.5646 48.6809 73.3769 49.0971 73.063C49.5035 72.745 49.8095 72.3342 50.0152 71.8306C50.2208 71.327 50.2899 70.8194 50.2222 70.3079C50.1488 69.7824 49.9353 69.3035 49.5819 68.8711C49.2186 68.4347 48.7308 68.0915 48.1185 67.8415Z" fill="#1F6275"/>
<path d="M45.8587 57.1624L55.772 63.6364L54.9758 64.8554L45.0625 58.3815L45.8587 57.1624Z" fill="#1F6275"/>
<path d="M51.8225 52.1579C51.6404 52.3672 51.414 52.4812 51.1431 52.5001C50.8722 52.5189 50.6322 52.4374 50.4229 52.2553C50.2137 52.0733 50.0996 51.8469 50.0808 51.576C50.0619 51.3051 50.1435 51.0651 50.3255 50.8558C50.5006 50.6546 50.72 50.5486 50.9839 50.5378C51.2547 50.519 51.4948 50.6006 51.704 50.7826C51.9133 50.9646 52.0273 51.191 52.0462 51.4619C52.072 51.7247 51.9975 51.9567 51.8225 52.1579ZM53.3589 52.5614L59.9743 58.3159L59.0187 59.4144L52.4033 53.6599L53.3589 52.5614Z" fill="#1F6275"/>
<path d="M60.179 47.6867L63.5171 51.632C63.7927 51.9577 64.0583 52.1312 64.3138 52.1525C64.5625 52.1657 64.8578 52.0276 65.1998 51.7382L66.0182 51.0458L66.814 51.9863L65.8124 52.8338C65.1935 53.3574 64.6088 53.6076 64.0582 53.5844C63.5076 53.5612 62.9568 53.2239 62.4056 52.5725L59.0675 48.6272L58.2002 49.3609L57.4251 48.4448L58.2924 47.7111L56.8662 46.0255L57.9777 45.085L59.4039 46.7706L61.1506 45.2928L61.9257 46.2088L60.179 47.6867Z" fill="#1F6275"/>
<path d="M72.5783 38.3296L74.1796 52.1723L72.8624 52.8983L72.3367 48.3649L65.0537 42.4772L66.469 41.6971L72.3084 46.5901L71.2612 39.0556L72.5783 38.3296Z" fill="#1F6275"/>
<path d="M117.317 37.9573C117.051 38.8466 116.523 39.4961 115.733 39.9059C114.956 40.3085 113.944 40.3237 112.697 39.9515L110.643 39.3383L109.311 43.7999L107.916 43.3834L111.106 32.6973L114.555 33.7269C115.761 34.0868 116.589 34.6512 117.039 35.4199C117.499 36.1916 117.591 37.0374 117.317 37.9573ZM113.041 38.8017C113.817 39.0335 114.44 39.0357 114.909 38.8082C115.377 38.5807 115.705 38.1553 115.891 37.5318C116.284 36.2133 115.725 35.3282 114.212 34.8767L112.158 34.2636L110.986 38.1885L113.041 38.8017Z" fill="#1F6275"/>
<path d="M123.359 41.5384C123.821 41.2159 124.324 41.0423 124.868 41.0176C125.422 40.998 126.001 41.1484 126.604 41.4688L125.898 42.7968L125.559 42.6166C124.118 41.8507 122.982 42.2495 122.151 43.8131L119.913 48.0234L118.627 47.3401L122.742 39.5977L124.028 40.281L123.359 41.5384Z" fill="#1F6275"/>
<path d="M128.473 54.0434C127.842 53.5176 127.387 52.8963 127.11 52.1793C126.841 51.4692 126.777 50.729 126.919 49.9587C127.076 49.187 127.445 48.4529 128.025 47.7563C128.599 47.0679 129.251 46.5843 129.983 46.3056C130.73 46.0255 131.478 45.9612 132.226 46.1127C132.982 46.256 133.679 46.5939 134.318 47.1265C134.957 47.659 135.416 48.2838 135.693 49.0007C135.977 49.7095 136.048 50.449 135.906 51.2193C135.773 51.9964 135.416 52.7333 134.835 53.4299C134.255 54.1265 133.587 54.6114 132.832 54.8847C132.092 55.1566 131.34 55.2175 130.577 55.0673C129.813 54.9172 129.112 54.5759 128.473 54.0434ZM129.292 53.0599C129.693 53.3945 130.149 53.6143 130.658 53.7194C131.168 53.8244 131.686 53.7772 132.213 53.5778C132.749 53.3851 133.242 53.0184 133.692 52.4775C134.143 51.9366 134.419 51.3889 134.52 50.8344C134.62 50.2799 134.574 49.7691 134.38 49.3021C134.193 48.8268 133.898 48.4219 133.497 48.0874C133.087 47.746 132.632 47.5262 132.13 47.4279C131.644 47.3283 131.142 47.3816 130.623 47.5879C130.104 47.7942 129.619 48.1678 129.168 48.7087C128.711 49.2578 128.423 49.8028 128.306 50.3436C128.197 50.8913 128.232 51.3993 128.411 51.8678C128.597 52.328 128.89 52.7254 129.292 53.0599Z" fill="#1F6275"/>
<path d="M142.621 57.9851L141.478 56.543L135.546 61.2433L134.642 60.1021L140.573 55.4018L139.868 54.5115L140.808 53.7662L141.514 54.6565L142.003 54.269C142.772 53.6595 143.488 53.4121 144.15 53.5268C144.828 53.6432 145.514 54.1403 146.21 55.0181L145.257 55.7733C144.86 55.2717 144.478 54.9959 144.111 54.9459C143.76 54.8977 143.359 55.0524 142.907 55.4101L142.418 55.7977L143.561 57.2398L142.621 57.9851Z" fill="#1F6275"/>
<path d="M147.059 71.5124C146.812 71.6384 146.543 71.7574 146.253 71.8695L143.069 65.6266C142.324 66.0667 141.854 66.6358 141.659 67.3338C141.478 68.0365 141.563 68.73 141.912 69.4141C142.198 69.9747 142.563 70.3749 143.009 70.6146C143.469 70.859 143.956 70.9457 144.471 70.8748L145.183 72.2716C144.326 72.4454 143.5 72.34 142.705 71.9552C141.919 71.5655 141.289 70.9051 140.814 69.9739C140.436 69.2327 140.263 68.4828 140.295 67.724C140.332 66.9748 140.57 66.2788 141.008 65.636C141.456 64.9884 142.084 64.4586 142.892 64.0467C143.7 63.6347 144.49 63.4352 145.263 63.4481C146.036 63.4609 146.731 63.6748 147.35 64.0896C147.983 64.5091 148.494 65.099 148.881 65.8591C149.259 66.6003 149.432 67.3383 149.4 68.0732C149.368 68.8081 149.144 69.473 148.729 70.0679C148.328 70.6674 147.772 71.1489 147.059 71.5124ZM146.646 70.0345C147.141 69.7825 147.508 69.4575 147.748 69.0596C147.997 68.6569 148.116 68.2195 148.102 67.7473C148.103 67.2798 147.987 66.818 147.755 66.3619C147.42 65.7063 146.925 65.2523 146.27 64.9999C145.619 64.7571 144.906 64.7914 144.131 65.1029L146.646 70.0345Z" fill="#1F6275"/>
<path d="M144.394 79.9509C144.227 79.2998 144.187 78.6882 144.272 78.116C144.367 77.5412 144.572 77.0537 144.889 76.6536C145.215 76.2509 145.633 75.9679 146.141 75.8048L146.514 77.262C146.101 77.4116 145.805 77.6965 145.626 78.1166C145.45 78.5469 145.436 79.0515 145.584 79.6302C145.721 80.1676 145.948 80.5609 146.265 80.8102C146.582 81.0594 146.921 81.1378 147.283 81.0454C147.655 80.9502 147.887 80.7149 147.978 80.3393C148.079 79.961 148.129 79.4032 148.128 78.6659C148.132 77.9932 148.165 77.4343 148.228 76.989C148.303 76.5513 148.469 76.1456 148.726 75.7717C148.995 75.4054 149.404 75.1523 149.952 75.0123C150.386 74.9013 150.817 74.9288 151.244 75.0947C151.672 75.2605 152.05 75.5547 152.378 75.9773C152.717 76.3972 152.964 76.912 153.12 77.5217C153.361 78.4621 153.317 79.2824 152.99 79.9827C152.662 80.683 152.09 81.1594 151.274 81.4122L150.914 80.0015C151.35 79.8569 151.66 79.5849 151.845 79.1855C152.031 78.7965 152.055 78.3281 151.915 77.7804C151.785 77.274 151.574 76.8987 151.28 76.6545C150.986 76.4103 150.664 76.3331 150.312 76.4229C150.033 76.4942 149.823 76.6415 149.682 76.8648C149.554 77.0957 149.468 77.3601 149.423 77.6578C149.391 77.9633 149.37 78.376 149.359 78.8961C149.35 79.5481 149.311 80.0864 149.244 80.511C149.187 80.933 149.032 81.3193 148.78 81.6699C148.531 82.0309 148.15 82.2825 147.636 82.425C147.171 82.5439 146.719 82.5217 146.281 82.3585C145.843 82.1952 145.455 81.9037 145.116 81.4838C144.791 81.0716 144.55 80.5606 144.394 79.9509Z" fill="#1F6275"/>
<path d="M145.757 90.3642C145.733 89.6927 145.823 89.0863 146.027 88.5451C146.242 88.0036 146.546 87.5708 146.94 87.2469C147.344 86.9225 147.812 86.7346 148.344 86.6831L148.399 88.1861C147.964 88.2447 147.614 88.4603 147.35 88.8329C147.087 89.2161 146.966 89.7062 146.988 90.3032C147.008 90.8575 147.147 91.29 147.404 91.6008C147.66 91.9116 147.975 92.0602 148.348 92.0466C148.732 92.0325 149.008 91.8516 149.177 91.5039C149.357 91.1558 149.524 90.6213 149.679 89.9005C149.826 89.244 149.977 88.7048 150.132 88.2828C150.298 87.8711 150.547 87.5098 150.877 87.1988C151.218 86.8981 151.671 86.7375 152.236 86.7168C152.684 86.7004 153.099 86.8186 153.482 87.0714C153.865 87.3243 154.172 87.692 154.403 88.1745C154.645 88.6566 154.777 89.2122 154.8 89.8411C154.836 90.8111 154.619 91.6036 154.151 92.2184C153.682 92.8333 153.022 93.1777 152.171 93.2515L152.118 91.7965C152.575 91.7478 152.936 91.5477 153.201 91.1965C153.466 90.8559 153.588 90.4031 153.567 89.8382C153.548 89.3159 153.421 88.9042 153.186 88.6033C152.951 88.3024 152.652 88.1585 152.289 88.1718C152.002 88.1823 151.765 88.2817 151.58 88.47C151.406 88.6685 151.265 88.9084 151.158 89.1899C151.062 89.4816 150.954 89.8805 150.833 90.3865C150.686 91.0217 150.534 91.5396 150.378 91.9402C150.233 92.3405 150 92.6853 149.679 92.9745C149.359 93.2744 148.933 93.4394 148.401 93.4696C147.921 93.4872 147.484 93.3697 147.091 93.1173C146.697 92.8648 146.38 92.4975 146.138 92.0154C145.907 91.5435 145.78 90.9931 145.757 90.3642Z" fill="#1F6275"/>
<path d="M155.48 100.108C155.518 99.8331 155.646 99.614 155.863 99.4504C156.079 99.2869 156.325 99.2243 156.6 99.2627C156.875 99.3011 157.094 99.4287 157.257 99.6455C157.421 99.8622 157.483 100.108 157.445 100.382C157.408 100.647 157.282 100.855 157.067 101.008C156.85 101.172 156.604 101.234 156.329 101.196C156.055 101.157 155.836 101.03 155.672 100.813C155.507 100.607 155.443 100.372 155.48 100.108ZM153.972 100.608L145.289 99.3931L145.49 97.9512L154.174 99.1657L153.972 100.608Z" fill="#1F6275"/>
<path d="M142.934 107.98C143.2 107.203 143.619 106.557 144.189 106.042C144.757 105.537 145.426 105.214 146.196 105.071C146.973 104.943 147.79 105.025 148.648 105.319C149.496 105.609 150.18 106.046 150.702 106.631C151.23 107.229 151.557 107.904 151.682 108.657C151.818 109.414 151.751 110.186 151.481 110.973C151.212 111.76 150.792 112.411 150.221 112.926C149.66 113.445 148.995 113.775 148.225 113.917C147.451 114.069 146.635 113.999 145.777 113.705C144.92 113.412 144.228 112.961 143.704 112.353C143.185 111.758 142.86 111.078 142.728 110.311C142.596 109.544 142.665 108.767 142.934 107.98ZM144.145 108.394C143.976 108.889 143.933 109.393 144.017 109.906C144.1 110.42 144.329 110.887 144.704 111.308C145.075 111.74 145.593 112.069 146.259 112.297C146.925 112.525 147.535 112.588 148.089 112.484C148.643 112.381 149.104 112.155 149.471 111.807C149.848 111.463 150.121 111.043 150.291 110.549C150.463 110.044 150.506 109.54 150.419 109.037C150.339 108.547 150.11 108.097 149.732 107.685C149.354 107.274 148.832 106.955 148.166 106.727C147.49 106.495 146.878 106.421 146.331 106.504C145.781 106.598 145.318 106.812 144.945 107.146C144.581 107.484 144.314 107.9 144.145 108.394Z" fill="#1F6275"/>
<path d="M144.949 124.014C144.37 124.91 143.628 125.459 142.722 125.661C141.826 125.868 140.867 125.642 139.846 124.982L135.506 122.175L136.288 120.966L140.453 123.66C141.187 124.135 141.866 124.313 142.489 124.195C143.12 124.082 143.642 123.708 144.053 123.072C144.47 122.427 144.601 121.782 144.447 121.136C144.288 120.499 143.823 119.932 143.052 119.434L138.981 116.801L139.772 115.579L147.135 120.34L146.344 121.562L145.296 120.885C145.516 121.37 145.596 121.885 145.535 122.43C145.469 122.985 145.274 123.512 144.949 124.014Z" fill="#1F6275"/>
<path d="M136.084 128.172C136.697 128.826 137.1 129.522 137.295 130.261C137.496 131.007 137.495 131.731 137.291 132.434C137.079 133.144 136.689 133.765 136.12 134.297C135.56 134.822 134.96 135.157 134.321 135.302C133.683 135.447 133.091 135.431 132.546 135.255L133.639 136.423L132.565 137.429L126.572 131.028L127.647 130.022L128.762 131.214C128.622 130.643 128.646 130.036 128.833 129.393C129.02 128.766 129.39 128.193 129.943 127.675C130.511 127.143 131.156 126.802 131.878 126.652C132.6 126.503 133.33 126.557 134.069 126.815C134.807 127.073 135.479 127.526 136.084 128.172ZM130.654 133.234C131.106 133.717 131.597 134.046 132.127 134.222C132.657 134.398 133.177 134.423 133.687 134.296C134.196 134.185 134.649 133.943 135.046 133.571C135.443 133.199 135.718 132.767 135.87 132.274C136.022 131.781 136.028 131.264 135.887 130.724C135.746 130.183 135.45 129.672 134.998 129.189C134.539 128.698 134.04 128.361 133.503 128.177C132.973 128.002 132.453 127.969 131.944 128.081C131.442 128.2 130.993 128.446 130.595 128.818C130.198 129.189 129.924 129.622 129.772 130.115C129.619 130.623 129.613 131.147 129.754 131.688C129.902 132.236 130.202 132.751 130.654 133.234Z" fill="#1F6275"/>
<path d="M128.25 143.882L121.944 133.861L123.177 133.085L129.483 143.106L128.25 143.882Z" fill="#1F6275"/>
<path d="M114.472 137.364C115.095 137.111 115.695 136.988 116.274 136.994C116.856 137.011 117.367 137.149 117.806 137.408C118.249 137.677 118.586 138.052 118.817 138.534L117.423 139.1C117.219 138.711 116.897 138.457 116.457 138.336C116.006 138.22 115.504 138.274 114.951 138.499C114.437 138.708 114.078 138.987 113.874 139.334C113.67 139.682 113.638 140.029 113.779 140.375C113.924 140.731 114.188 140.928 114.573 140.968C114.961 141.017 115.521 140.991 116.251 140.89C116.918 140.803 117.476 140.76 117.926 140.762C118.37 140.777 118.794 140.886 119.2 141.09C119.599 141.308 119.905 141.678 120.118 142.202C120.287 142.617 120.318 143.048 120.211 143.494C120.105 143.94 119.865 144.355 119.49 144.737C119.12 145.129 118.644 145.444 118.061 145.681C117.161 146.047 116.343 146.115 115.605 145.885C114.866 145.655 114.317 145.153 113.956 144.379L115.305 143.831C115.507 144.243 115.819 144.514 116.239 144.642C116.65 144.775 117.117 144.735 117.641 144.522C118.125 144.325 118.468 144.064 118.671 143.74C118.873 143.416 118.906 143.086 118.769 142.75C118.661 142.484 118.486 142.295 118.246 142.186C118 142.09 117.726 142.04 117.425 142.036C117.118 142.046 116.706 142.081 116.19 142.141C115.542 142.22 115.004 142.255 114.574 142.245C114.148 142.246 113.744 142.145 113.363 141.943C112.972 141.745 112.671 141.401 112.46 140.911C112.279 140.466 112.24 140.016 112.342 139.56C112.445 139.104 112.681 138.679 113.051 138.287C113.416 137.909 113.889 137.601 114.472 137.364Z" fill="#1F6275"/>
</g>
</g>
<g clip-path="url(#clip2_1_526)">
<g clip-path="url(#clip3_1_526)">
<g clip-path="url(#clip4_1_526)">
<path d="M100.859 91.0412L93.6432 97.853L90.1802 94.2922C89.7963 93.8971 89.1641 93.8881 88.7692 94.2718C88.374 94.6559 88.365 95.2874 88.7489 95.6824L92.9024 99.9439C93.2882 100.332 93.9118 100.345 94.3137 99.9736L102.25 92.4916C102.443 92.3099 102.556 92.059 102.563 91.7945C102.571 91.53 102.473 91.2733 102.29 91.081C101.904 90.6797 101.267 90.6621 100.859 91.0412Z" fill="#E1B367"/>
<path d="M95.505 80.5579C87.2583 80.5579 80.5527 87.2599 80.5527 95.5023C80.5527 103.745 87.2583 110.447 95.505 110.447C103.752 110.447 110.458 103.745 110.458 95.5023C110.458 87.2599 103.752 80.5579 95.505 80.5579ZM95.505 108.447C88.3592 108.447 82.5544 102.635 82.5544 95.5023C82.5544 88.37 88.3592 82.5585 95.505 82.5585C102.658 82.5585 108.456 88.3536 108.456 95.5023C108.456 102.651 102.658 108.447 95.505 108.447Z" fill="#E1B367"/>
<path d="M116.082 90.0007L116.413 84.0688C116.436 83.6707 116.219 83.2967 115.862 83.1185L110.578 80.4478L107.905 75.1661C107.724 74.8124 107.352 74.5972 106.955 74.6159L101.01 74.9363L96.0553 71.665C95.7215 71.445 95.2887 71.445 94.9544 71.665L90.0003 74.9363L84.0657 74.6061C83.6669 74.5827 83.2931 74.7992 83.1149 75.1563L80.4423 80.438L75.1582 83.1088C74.804 83.2901 74.589 83.6617 74.6078 84.0591L74.9377 89.991L71.6651 94.9425C71.445 95.2762 71.445 95.7088 71.6651 96.0428L74.928 101.004L74.5976 106.936C74.5745 107.334 74.7907 107.708 75.1481 107.886L80.4326 110.557L83.1047 115.839C83.2861 116.193 83.6579 116.408 84.0555 116.389L89.9905 116.059L94.9447 119.33C95.2766 119.557 95.7137 119.557 96.0456 119.33L101 116.059L106.935 116.389C107.333 116.412 107.707 116.196 107.886 115.839L110.558 110.557L115.842 107.886C116.196 107.705 116.411 107.333 116.393 106.936L116.062 101.004L119.335 96.0526C119.555 95.7189 119.555 95.286 119.335 94.9523L116.082 90.0007ZM114.221 100.184C114.098 100.363 114.042 100.578 114.061 100.794L114.371 106.406L109.377 108.926C109.186 109.022 109.032 109.177 108.936 109.367L106.414 114.358L100.799 114.048C100.584 114.041 100.372 114.096 100.189 114.208L95.5049 117.299L90.8213 114.208C90.6587 114.098 90.4671 114.039 90.2708 114.038H90.2208L84.606 114.348L82.0839 109.357C81.9885 109.166 81.8341 109.012 81.6433 108.917L76.6392 106.406L76.9496 100.794C76.9574 100.579 76.9015 100.367 76.7893 100.184L73.6969 95.5024L76.7893 90.8209C76.9116 90.6423 76.9683 90.4267 76.9496 90.211L76.6392 84.5991L81.6336 82.0784C81.8239 81.983 81.9784 81.8287 82.0738 81.6384L84.5958 76.6466L90.2106 76.9569C90.4253 76.9643 90.6375 76.9088 90.8213 76.7967L95.5049 73.7059L100.189 76.7967C100.368 76.919 100.584 76.9756 100.799 76.9569L106.414 76.6466L108.936 81.6384C109.032 81.8287 109.186 81.983 109.377 82.0784L114.371 84.5991L114.061 90.211C114.053 90.4255 114.109 90.6377 114.221 90.8209L117.313 95.5024L114.221 100.184Z" fill="#E1B367"/>
</g>
</g>
</g>
<defs>
<filter id="filter0_d_1_526" x="1" y="1" width="189" height="189" filterUnits="userSpaceOnUse" color-interpolation-filters="sRGB">
<feFlood flood-opacity="0" result="BackgroundImageFix"/>
<feColorMatrix in="SourceAlpha" type="matrix" values="0 0 0 0 0 0 0 0 0 0 0 0 0 0 0 0 0 0 127 0" result="hardAlpha"/>
<feOffset dy="4"/>
<feGaussianBlur stdDeviation="10.5"/>
<feComposite in2="hardAlpha" operator="out"/>
<feColorMatrix type="matrix" values="0 0 0 0 0.188235 0 0 0 0 0.482353 0 0 0 0 0.768627 0 0 0 0.1 0"/>
<feBlend mode="normal" in2="BackgroundImageFix" result="effect1_dropShadow_1_526"/>
<feBlend mode="normal" in="SourceGraphic" in2="effect1_dropShadow_1_526" result="shape"/>
</filter>
<clipPath id="clip0_1_526">
<rect width="191" height="191" fill="white"/>
</clipPath>
<clipPath id="clip1_1_526">
<rect width="191" height="191" fill="white"/>
</clipPath>
<clipPath id="clip2_1_526">
<rect width="48" height="48" fill="white" transform="translate(71.5 71.5)"/>
</clipPath>
<clipPath id="clip3_1_526">
<rect width="48" height="48" fill="white" transform="translate(71.5 71.5)"/>
</clipPath>
<clipPath id="clip4_1_526">
<rect width="48" height="48" fill="white" transform="translate(71.5 71.5)"/>
</clipPath>
</defs>
</svg>
