<svg
        width="243"
        height="244"
        viewBox="0 0 243 244"
        fill="none"
        xmlns="http://www.w3.org/2000/svg"
      >
        <path
          d="M180.007 13.7195C166.879 17.474 142.812 15.2839 132.419 13.7195C163.128 -1.06408 196.652 -4.81862 223.845 20.0553C245.599 39.9544 242.13 76.6864 237.676 92.565C225.798 128.937 200.215 207.126 192.901 228.902C182.399 250.679 169.302 239.696 164.067 231.483C159.613 223.27 149.532 197.927 141.796 162.728C129.7 125.059 112.024 156.862 109.915 159.912C108.227 162.353 104.054 175.478 102.178 181.736C99.2091 193.156 92.4264 218.108 89.0507 226.556C72.9223 254.527 59.3569 238.21 54.5903 226.556C43.5724 193.234 15.2065 123.305 6.29837 95.3809C-2.84377 68.3951 4.50111 45.8678 10.7524 36.9507C17.0819 23.0276 42.2122 -0.688618 92.0978 15.8314C141.983 32.3514 171.49 21.3068 180.007 13.7195Z"
          fill="white"
          stroke="#A0D0DE"
          stroke-width="3"
        />
        <path
          d="M20.7342 84.3547C17.4568 74.0587 18.65 68.2489 25.8141 63.1115C35.0591 56.9427 51.5409 67.7633 54.3271 78.7725C57.1133 89.7817 43.8396 104.202 40.2345 108.699C37.3504 112.296 34.0075 110.198 32.6965 108.699C30.0746 104.874 24.0115 94.6506 20.7342 84.3547Z"
          stroke="#297489"
          stroke-width="3.69118"
          stroke-linecap="round"
        />
        <path
          d="M54.7088 67.1893C58.1761 65.6885 65.7318 62.6558 68.2159 62.5316C71.3209 62.3764 77.8416 65.6367 76.9101 74.952C75.9786 84.2672 72.0972 95.9113 65.266 108.642C62.0057 113.766 56.8823 107.866 52.8457 102.121"
          stroke="#E1B368"
          stroke-width="3.69118"
          stroke-linecap="round"
        />
        <path
          d="M94.1278 85.6474C93.1158 85.6474 92.1976 85.46 91.3731 85.0852C90.561 84.7229 89.9177 84.2044 89.4429 83.5298C88.9807 82.8677 88.7496 82.1119 88.7496 81.2624C88.7496 81 88.7683 80.6564 88.8058 80.2317C88.8558 79.8069 88.912 79.3322 88.9744 78.8075C89.0494 78.2828 89.1244 77.7518 89.1993 77.2146C89.2868 76.6775 89.368 76.159 89.4429 75.6593L91.1857 75.9216C91.0483 76.7836 90.9233 77.5769 90.8109 78.3015C90.711 79.0136 90.6298 79.6258 90.5673 80.138C90.5173 80.6377 90.4923 81.0125 90.4923 81.2624C90.4923 81.812 90.6422 82.2993 90.9421 82.724C91.2419 83.1488 91.6667 83.4798 92.2164 83.7172C92.766 83.9671 93.4032 84.092 94.1278 84.092C94.8524 84.092 95.4645 83.9733 95.9642 83.7359C96.4764 83.5111 96.8637 83.1988 97.1261 82.799C97.3884 82.3992 97.5196 81.9245 97.5196 81.3748V71.6116H99.2811V81.3748C99.2811 82.2618 99.05 83.0239 98.5877 83.661C98.1255 84.2981 97.5071 84.7854 96.7325 85.1227C95.958 85.4725 95.0897 85.6474 94.1278 85.6474ZM93.1533 71.4429V69.6252H94.9148V71.4429H93.1533ZM104.15 81V79.4446H106.398V81H104.15ZM102.407 81V67.6201H104.15V81H102.407ZM106.398 81V79.4446C106.461 79.4446 106.517 79.4634 106.567 79.5009C106.617 79.5383 106.654 79.5883 106.679 79.6508C106.704 79.7132 106.723 79.7944 106.736 79.8944C106.761 79.9818 106.773 80.088 106.773 80.2129C106.773 80.3254 106.761 80.4316 106.736 80.5315C106.723 80.6315 106.704 80.7189 106.679 80.7939C106.654 80.8563 106.617 80.9063 106.567 80.9438C106.517 80.9813 106.461 81 106.398 81ZM110.158 81V79.4446H112.163V81H110.158ZM106.392 81C106.317 81 106.254 80.9813 106.204 80.9438C106.154 80.9063 106.117 80.8563 106.092 80.7939C106.067 80.7189 106.048 80.6315 106.036 80.5315C106.023 80.4316 106.017 80.3254 106.017 80.2129C106.017 80.0505 106.029 79.9131 106.054 79.8007C106.067 79.6882 106.104 79.6008 106.167 79.5383C106.217 79.4759 106.292 79.4446 106.392 79.4446V81ZM106.392 81V79.4446H109.296L108.397 80.1567V71.6116H110.158V81H106.392ZM112.163 81V79.4446C112.238 79.4446 112.301 79.4634 112.351 79.5009C112.401 79.5383 112.438 79.5883 112.463 79.6508C112.488 79.7132 112.507 79.7944 112.519 79.8944C112.532 79.9818 112.538 80.088 112.538 80.2129C112.538 80.3254 112.532 80.4316 112.519 80.5315C112.507 80.6315 112.488 80.7189 112.463 80.7939C112.438 80.8563 112.401 80.9063 112.351 80.9438C112.301 80.9813 112.238 81 112.163 81ZM108.397 69.925V68.1073H110.158V69.925H108.397ZM122.332 81C121.882 81 121.438 80.9188 121.001 80.7564C120.576 80.5815 120.17 80.3129 119.783 79.9506L120.889 78.7888C121.164 79.0136 121.413 79.1823 121.638 79.2947C121.863 79.3947 122.094 79.4446 122.332 79.4446H125.724L124.955 80.1942V75.8092C124.955 75.5843 124.93 75.272 124.88 74.8722C124.843 74.46 124.78 73.9977 124.693 73.4855C124.618 72.9608 124.524 72.4299 124.412 71.8927L126.117 71.6116C126.204 72.0613 126.292 72.5548 126.379 73.092C126.467 73.6292 126.542 74.1414 126.604 74.6286C126.667 75.1158 126.698 75.5094 126.698 75.8092V81H122.332ZM112.156 81V79.4446H114.892L114.461 79.8756V73.5043H116.204V81H112.156ZM116.204 81V79.4446H118.153C118.578 79.4446 118.896 79.3822 119.109 79.2572C119.321 79.1323 119.471 78.8825 119.558 78.5077C119.646 78.1329 119.689 77.5832 119.689 76.8586V72.5673H121.451V76.8586C121.451 77.8705 121.332 78.6826 121.095 79.2947C120.87 79.9069 120.52 80.3441 120.045 80.6065C119.571 80.8688 118.94 81 118.153 81H116.204ZM112.156 81C112.081 81 112.019 80.9813 111.969 80.9438C111.919 80.9063 111.881 80.8563 111.856 80.7939C111.831 80.7189 111.813 80.6315 111.8 80.5315C111.788 80.4316 111.781 80.3254 111.781 80.2129C111.781 80.0505 111.794 79.9131 111.819 79.8007C111.831 79.6882 111.869 79.6008 111.931 79.5383C111.981 79.4759 112.056 79.4446 112.156 79.4446V81ZM128.827 81V79.4446H138.084L137.166 80.3816V67.6201H138.909V81H128.827ZM131.713 79.4446V70.2623H133.456V79.4446H131.713ZM142.155 81V67.6201H143.898V81H142.155ZM163.405 81V79.4446H165.41V81H163.405ZM156.247 81C154.985 81 153.929 80.8501 153.08 80.5503C152.23 80.2379 151.587 79.7757 151.15 79.1635C150.725 78.5514 150.513 77.7706 150.513 76.8211C150.513 76.5213 150.531 76.2027 150.569 75.8654C150.619 75.5156 150.669 75.1783 150.719 74.8535C150.781 74.5287 150.837 74.2476 150.887 74.0102C150.937 73.7729 150.975 73.6042 151 73.5043L152.705 73.8228C152.668 74.0227 152.611 74.2913 152.536 74.6286C152.474 74.9659 152.412 75.3282 152.349 75.7155C152.287 76.1028 152.255 76.4713 152.255 76.8211C152.255 77.2834 152.33 77.6831 152.48 78.0204C152.63 78.3578 152.861 78.6326 153.174 78.845C153.498 79.0574 153.911 79.2135 154.41 79.3135C154.923 79.4009 155.547 79.4446 156.284 79.4446H161.644V71.6116H163.405V81H156.247ZM165.41 81V79.4446C165.485 79.4446 165.548 79.4634 165.598 79.5009C165.648 79.5383 165.685 79.5883 165.71 79.6508C165.735 79.7132 165.754 79.7944 165.766 79.8944C165.779 79.9818 165.785 80.088 165.785 80.2129C165.785 80.3254 165.779 80.4316 165.766 80.5315C165.754 80.6315 165.735 80.7189 165.71 80.7939C165.685 80.8563 165.648 80.9063 165.598 80.9438C165.548 80.9813 165.485 81 165.41 81ZM156.134 84.5417V82.724H157.896V84.5417H156.134ZM177.703 81V79.4446H179.727V81H177.703ZM165.41 81V79.4446H178.021L176.447 80.8313V76.54C176.447 75.778 176.341 75.1533 176.129 74.6661C175.929 74.1664 175.623 73.7978 175.21 73.5605C174.798 73.3106 174.286 73.1857 173.674 73.1857C173.137 73.1857 172.631 73.2794 172.156 73.4668C171.681 73.6542 171.244 73.904 170.844 74.2164C170.444 74.5162 170.07 74.8472 169.72 75.2095C169.37 75.5718 169.051 75.9341 168.764 76.2964C168.489 76.6587 168.239 76.9835 168.014 77.2709L167.49 75.8092C167.914 75.272 168.333 74.7598 168.745 74.2726C169.158 73.7729 169.601 73.3231 170.076 72.9233C170.563 72.5236 171.1 72.205 171.687 71.9676C172.287 71.7303 172.974 71.6116 173.749 71.6116C174.623 71.6116 175.348 71.7615 175.922 72.0613C176.497 72.3612 176.947 72.7547 177.272 73.2419C177.609 73.7291 177.846 74.2663 177.984 74.8535C178.121 75.4282 178.19 75.9903 178.19 76.54V81H165.41ZM166.665 79.4446V67.6201H168.408V79.4446H166.665ZM165.41 81C165.335 81 165.272 80.9813 165.222 80.9438C165.172 80.9063 165.135 80.8563 165.11 80.7939C165.085 80.7189 165.066 80.6315 165.054 80.5315C165.041 80.4316 165.035 80.3254 165.035 80.2129C165.035 80.0505 165.047 79.9131 165.072 79.8007C165.085 79.6882 165.122 79.6008 165.185 79.5383C165.235 79.4759 165.31 79.4446 165.41 79.4446V81ZM179.727 81V79.4446C179.801 79.4446 179.864 79.4634 179.914 79.5009C179.964 79.5383 180.001 79.5883 180.026 79.6508C180.051 79.7132 180.07 79.7944 180.083 79.8944C180.095 79.9818 180.101 80.088 180.101 80.2129C180.101 80.3254 180.095 80.4316 180.083 80.5315C180.07 80.6315 180.051 80.7189 180.026 80.7939C180.001 80.8563 179.964 80.9063 179.914 80.9438C179.864 80.9813 179.801 81 179.727 81ZM181.95 81V67.6201H183.693V81H181.95ZM179.72 81V79.4446H181.95V81H179.72ZM179.72 81C179.645 81 179.583 80.9813 179.533 80.9438C179.483 80.9063 179.446 80.8563 179.421 80.7939C179.396 80.7189 179.377 80.6315 179.364 80.5315C179.352 80.4316 179.346 80.3254 179.346 80.2129C179.346 80.0505 179.358 79.9131 179.383 79.8007C179.396 79.6882 179.433 79.6008 179.496 79.5383C179.545 79.4759 179.62 79.4446 179.72 79.4446V81ZM195.684 81C194.422 81 193.366 80.8501 192.517 80.5503C191.667 80.2379 191.024 79.7757 190.587 79.1635C190.162 78.5514 189.949 77.7706 189.949 76.8211C189.949 76.5213 189.968 76.2027 190.006 75.8654C190.056 75.5156 190.106 75.1783 190.156 74.8535C190.218 74.5287 190.274 74.2476 190.324 74.0102C190.374 73.7729 190.412 73.6042 190.437 73.5043L192.142 73.8228C192.104 74.0227 192.048 74.2913 191.973 74.6286C191.911 74.9659 191.848 75.3282 191.786 75.7155C191.723 76.1028 191.692 76.4713 191.692 76.8211C191.692 77.2834 191.767 77.6831 191.917 78.0204C192.067 78.3578 192.298 78.6326 192.61 78.845C192.935 79.0574 193.348 79.2135 193.847 79.3135C194.359 79.4009 194.984 79.4446 195.721 79.4446H201.081V71.6116H202.842V81H195.684ZM194.147 71.6116V69.7939H195.871V71.6116H194.147ZM196.939 71.6116V69.7939H198.663V71.6116H196.939ZM207.747 81V79.4446H209.996V81H207.747ZM206.004 81V67.6201H207.747V81H206.004ZM209.996 81V79.4446C210.058 79.4446 210.114 79.4634 210.164 79.5009C210.214 79.5383 210.252 79.5883 210.277 79.6508C210.302 79.7132 210.32 79.7944 210.333 79.8944C210.358 79.9818 210.37 80.088 210.37 80.2129C210.37 80.3254 210.358 80.4316 210.333 80.5315C210.32 80.6315 210.302 80.7189 210.277 80.7939C210.252 80.8563 210.214 80.9063 210.164 80.9438C210.114 80.9813 210.058 81 209.996 81ZM209.989 81V79.4446H213.175L212.275 80.1567V71.6116H214.018V81H209.989ZM209.989 81C209.914 81 209.851 80.9813 209.801 80.9438C209.751 80.9063 209.714 80.8563 209.689 80.7939C209.664 80.7189 209.645 80.6315 209.633 80.5315C209.62 80.4316 209.614 80.3254 209.614 80.2129C209.614 80.0505 209.627 79.9131 209.652 79.8007C209.664 79.6882 209.702 79.6008 209.764 79.5383C209.814 79.4759 209.889 79.4446 209.989 79.4446V81ZM210.72 84.5417V82.724H212.444V84.5417H210.72ZM213.512 84.5417V82.724H215.236V84.5417H213.512ZM217.259 81V67.6201H219.001V81H217.259Z"
          fill="#1F6275"
        />
        <path
          d="M89.248 106V94.976H96.16V96.304H90.784V99.76H95.2V101.056H90.784V104.672H96.16V106H89.248ZM98.0918 106V94.976H99.6278V106H98.0918ZM101.211 106L104.171 94.976H107.227L110.187 106H108.635L107.915 103.36H103.467L102.747 106H101.211ZM103.771 102.048H107.627L106.091 96.256H105.307L103.771 102.048ZM113.05 106V96.336H109.802V94.976H117.802V96.336H114.586V106H113.05ZM122.748 106V94.976H126.764C127.585 94.976 128.268 95.104 128.812 95.36C129.367 95.616 129.804 95.9787 130.124 96.448C130.444 96.9173 130.668 97.4827 130.796 98.144C130.935 98.7947 131.004 99.52 131.004 100.32C131.004 101.131 130.94 101.883 130.812 102.576C130.684 103.259 130.46 103.861 130.14 104.384C129.82 104.896 129.388 105.296 128.844 105.584C128.3 105.861 127.612 106 126.78 106H122.748ZM124.284 104.672H126.748C127.303 104.672 127.751 104.555 128.092 104.32C128.444 104.085 128.716 103.765 128.908 103.36C129.1 102.955 129.233 102.496 129.308 101.984C129.383 101.461 129.42 100.907 129.42 100.32C129.42 99.744 129.383 99.216 129.308 98.736C129.233 98.2453 129.1 97.8187 128.908 97.456C128.716 97.0933 128.444 96.816 128.092 96.624C127.751 96.4213 127.303 96.32 126.748 96.32H124.284V104.672ZM133.061 106V94.976H139.973V96.304H134.597V99.76H139.013V101.056H134.597V104.672H139.973V106H133.061ZM141.904 106V94.976H144.432L148.4 104.288H148.72V94.976H150.256V106H147.776L143.744 96.672H143.44V106H141.904ZM154.956 106V96.336H151.708V94.976H159.708V96.336H156.492V106H154.956ZM159.336 106L162.296 94.976H165.352L168.312 106H166.76L166.04 103.36H161.592L160.872 106H159.336ZM161.896 102.048H165.752L164.216 96.256H163.432L161.896 102.048ZM169.873 106V94.976H171.409V104.656H176.097V106H169.873ZM184.757 106.16C183.925 106.16 183.237 106.043 182.693 105.808C182.16 105.573 181.744 105.221 181.445 104.752C181.147 104.272 180.939 103.68 180.821 102.976C180.704 102.261 180.645 101.44 180.645 100.512C180.645 99.5627 180.704 98.7307 180.821 98.016C180.939 97.3013 181.147 96.7093 181.445 96.24C181.755 95.76 182.176 95.4027 182.709 95.168C183.243 94.9227 183.931 94.8 184.773 94.8C185.147 94.8 185.525 94.8213 185.909 94.864C186.293 94.896 186.651 94.944 186.981 95.008C187.323 95.0613 187.616 95.1147 187.861 95.168L187.797 96.432C187.573 96.3893 187.291 96.352 186.949 96.32C186.619 96.2773 186.277 96.24 185.925 96.208C185.584 96.176 185.269 96.16 184.981 96.16C184.405 96.16 183.936 96.2453 183.573 96.416C183.211 96.5867 182.928 96.848 182.725 97.2C182.533 97.552 182.4 98 182.325 98.544C182.261 99.088 182.229 99.744 182.229 100.512C182.229 101.259 182.261 101.904 182.325 102.448C182.4 102.992 182.533 103.44 182.725 103.792C182.917 104.133 183.195 104.389 183.557 104.56C183.931 104.72 184.411 104.8 184.997 104.8C185.445 104.8 185.931 104.773 186.453 104.72C186.987 104.667 187.44 104.608 187.813 104.544L187.861 105.824C187.605 105.877 187.301 105.931 186.949 105.984C186.608 106.037 186.245 106.08 185.861 106.112C185.488 106.144 185.12 106.16 184.757 106.16ZM189.717 106V94.976H191.253V104.656H195.941V106H189.717ZM197.373 106V94.976H198.909V106H197.373ZM201.42 106V94.976H203.948L207.916 104.288H208.236V94.976H209.772V106H207.292L203.26 96.672H202.956V106H201.42ZM212.264 106V94.976H213.8V106H212.264ZM220.039 106.16C219.207 106.16 218.519 106.043 217.975 105.808C217.441 105.573 217.025 105.221 216.727 104.752C216.428 104.272 216.22 103.68 216.103 102.976C215.985 102.261 215.927 101.44 215.927 100.512C215.927 99.5627 215.985 98.7307 216.103 98.016C216.22 97.3013 216.428 96.7093 216.727 96.24C217.036 95.76 217.457 95.4027 217.991 95.168C218.524 94.9227 219.212 94.8 220.055 94.8C220.428 94.8 220.807 94.8213 221.191 94.864C221.575 94.896 221.932 94.944 222.263 95.008C222.604 95.0613 222.897 95.1147 223.142 95.168L223.079 96.432C222.855 96.3893 222.572 96.352 222.231 96.32C221.9 96.2773 221.559 96.24 221.207 96.208C220.865 96.176 220.551 96.16 220.263 96.16C219.687 96.16 219.217 96.2453 218.855 96.416C218.492 96.5867 218.209 96.848 218.007 97.2C217.815 97.552 217.681 98 217.607 98.544C217.543 99.088 217.511 99.744 217.511 100.512C217.511 101.259 217.543 101.904 217.607 102.448C217.681 102.992 217.815 103.44 218.007 103.792C218.199 104.133 218.476 104.389 218.839 104.56C219.212 104.72 219.692 104.8 220.279 104.8C220.727 104.8 221.212 104.773 221.735 104.72C222.268 104.667 222.721 104.608 223.095 104.544L223.142 105.824C222.887 105.877 222.583 105.931 222.231 105.984C221.889 106.037 221.527 106.08 221.143 106.112C220.769 106.144 220.401 106.16 220.039 106.16Z"
          fill="#1F6275"
        />
      </svg>