<svg width="203" height="176" viewBox="0 0 203 176" fill="none" xmlns="http://www.w3.org/2000/svg">
<path d="M13.5849 83.2015C3.03009 50.0432 6.87288 31.3326 29.9449 14.7875C59.7186 -5.07921 112.799 29.7686 121.772 65.2241C130.745 100.68 87.9964 147.121 76.3861 161.603C67.0979 173.189 56.332 166.43 52.1101 161.603C43.6662 149.285 24.1397 116.36 13.5849 83.2015Z" stroke="#297489" stroke-width="16" stroke-linecap="round"/>
<path d="M123 27.9201C134.167 23.0868 158.5 13.3201 166.5 12.9201C176.5 12.4201 197.5 22.92 194.5 52.9201C191.5 82.9201 179 120.42 157 161.42C146.5 177.92 130 158.92 117 140.42" stroke="#E1B368" stroke-width="16" stroke-linecap="round"/>
</svg>
