<svg width="505" height="508" viewBox="0 0 505 508" fill="none" xmlns="http://www.w3.org/2000/svg">
<path d="M375.144 26.6109C347.625 34.4954 297.174 29.8961 275.388 26.6109C339.762 -4.43457 410.035 -12.3191 467.039 39.9161C512.642 81.7042 505.369 158.841 496.032 192.187C471.134 268.568 417.505 432.764 402.173 478.494C380.158 524.225 352.704 501.163 341.73 483.915C332.393 466.668 311.262 413.447 295.046 339.529C269.69 260.423 232.637 327.21 228.214 333.616C224.676 338.741 215.929 366.304 211.998 379.445C205.773 403.427 191.555 455.826 184.479 473.567C150.67 532.307 122.234 498.042 112.242 473.567C89.1454 403.591 29.6839 256.741 11.0104 198.1C-8.15368 141.43 7.24291 94.1224 20.3471 75.3966C33.6152 46.158 86.2942 -3.6461 190.866 31.0459C295.438 65.738 357.29 42.5442 375.144 26.6109Z" fill="url(#paint0_linear_1_17)" stroke="#74AFBF" stroke-width="3"/>
<defs>
<linearGradient id="paint0_linear_1_17" x1="253" y1="-22.5" x2="252.5" y2="506" gradientUnits="userSpaceOnUse">
<stop offset="0.357529" stop-color="white"/>
<stop offset="1" stop-color="#78BCD4" stop-opacity="0.87"/>
</linearGradient>
</defs>
</svg>
